<svg width="32" height="32" viewBox="0 0 32 32" fill="none" xmlns="http://www.w3.org/2000/svg">
<circle cx="16" cy="16" r="15.5" transform="rotate(180 16 16)" stroke="#D58C51"/>
<g clip-path="url(#clip0_1_151)">
<path d="M14.6514 13.0468C14.7867 12.9115 14.9998 12.9115 15.1351 13.0468C15.2659 13.1776 15.2659 13.3952 15.1351 13.5257L12.6823 15.9786H20.7764C20.9651 15.9786 21.12 16.1286 21.12 16.3172C21.12 16.5059 20.9651 16.6608 20.7764 16.6608H12.6823L15.1351 19.1091C15.2659 19.2444 15.2659 19.4624 15.1351 19.5928C14.9998 19.7282 14.7867 19.7282 14.6514 19.5928L11.6178 16.5593C11.4871 16.4285 11.4871 16.2109 11.6178 16.0804L14.6514 13.0468Z" fill="#D58C51"/>
</g>
<defs>
<clipPath id="clip0_1_151">
<rect width="9.6" height="9.6" fill="white" transform="translate(11.52 11.52)"/>
</clipPath>
</defs>
</svg>
